<svg xmlns="http://www.w3.org/2000/svg" width="559.969" height="79" viewBox="0 0 559.969 79">
  <metadata><?xpacket begin="﻿" id="W5M0MpCehiHzreSzNTczkc9d"?>
<x:xmpmeta xmlns:x="adobe:ns:meta/" x:xmptk="Adobe XMP Core 5.6-c138 79.159824, 2016/09/14-01:09:01        ">
   <rdf:RDF xmlns:rdf="http://www.w3.org/1999/02/22-rdf-syntax-ns#">
      <rdf:Description rdf:about=""/>
   </rdf:RDF>
</x:xmpmeta>
                                                                                                    
                                                                                                    
                                                                                                    
                                                                                                    
                                                                                                    
                                                                                                    
                                                                                                    
                                                                                                    
                                                                                                    
                                                                                                    
                                                                                                    
                                                                                                    
                                                                                                    
                                                                                                    
                                                                                                    
                                                                                                    
                                                                                                    
                                                                                                    
                                                                                                    
                                                                                                    
                           
<?xpacket end="w"?></metadata>
<defs>
    <style>
      .cls-1 {
        fill: #fff;
        fill-rule: evenodd;
      }
    </style>
  </defs>
  <path id="Forma_1" data-name="Forma 1" class="cls-1" d="M257.913,378.55a3.813,3.813,0,0,0-2.236.5,4.376,4.376,0,0,0-1.228,1.73l-5.03,13.168a8.831,8.831,0,0,0-.56,2.565,3.833,3.833,0,0,0,.728,2.4,5,5,0,0,0,1.954,1.505,13.422,13.422,0,0,0,2.794.892,22.985,22.985,0,0,0,3.243.449,1.172,1.172,0,0,1,1.116.612,2.616,2.616,0,0,1,0,2.565,1.17,1.17,0,0,1-1.116.616,48.849,48.849,0,0,1-6.147-.448,52.148,52.148,0,0,0-6.593-.445,34.279,34.279,0,0,0-5.59.445,35.516,35.516,0,0,1-5.811.448,1.131,1.131,0,0,1-.949-0.56,2.4,2.4,0,0,1-.447-1.228,2.5,2.5,0,0,1,.222-1.283,1.27,1.27,0,0,1,1.063-.722l1.676-.225a21.776,21.776,0,0,0,3.072-.837,7.323,7.323,0,0,0,2.572-1.616,14.412,14.412,0,0,0,2.29-2.958,30.436,30.436,0,0,0,2.238-4.744l25.258-63.494a1.669,1.669,0,0,1,1.787-.891,3.323,3.323,0,0,1,2.458.891q2.8,7.144,5.979,15.288T287.2,359.75q3.353,8.424,6.708,16.737t6.368,15.676a25.235,25.235,0,0,0,2.629,5.023,11.052,11.052,0,0,0,2.569,2.679,8.03,8.03,0,0,0,2.626,1.228q1.342,0.332,2.907.67a1.2,1.2,0,0,1,.949.722,3.064,3.064,0,0,1,.279,1.283,2.678,2.678,0,0,1-.279,1.228,0.894,0.894,0,0,1-.838.56,51.334,51.334,0,0,1-6.875-.448,56.255,56.255,0,0,0-7.431-.445,83.088,83.088,0,0,0-8.829.445,74.193,74.193,0,0,1-7.935.448,1.3,1.3,0,0,1-1.174-.616,2.511,2.511,0,0,1-.392-1.392,2.075,2.075,0,0,1,.335-1.173,1.523,1.523,0,0,1,1.12-.612,17.953,17.953,0,0,0,5.587-1.341q1.785-.894,1.787-3.681a10.725,10.725,0,0,0-.167-1.785,20.69,20.69,0,0,0-.725-2.736q-0.564-1.73-1.566-4.463t-2.683-6.974a3,3,0,0,0-1.509-1.841,8.733,8.733,0,0,0-3.071-.392H257.913Zm19.222-4.35a3.3,3.3,0,0,0,2.127-.5c0.37-.336.37-0.952,0-1.843l-9.726-26.111a0.993,0.993,0,0,0-1.787,0l-10.171,26.111q-0.561,1.45-.111,1.895a2.36,2.36,0,0,0,1.677.449h17.991Zm58.208,17.183c0,1.861.034,3.424,0.111,4.687a7.316,7.316,0,0,0,.785,3.124,4.4,4.4,0,0,0,2.176,1.9,15.439,15.439,0,0,0,4.191,1,1.413,1.413,0,0,1,1.007.613,2.044,2.044,0,0,1,.335,1.171,1.857,1.857,0,0,1-.335,1.059,1.126,1.126,0,0,1-1.007.5,48.969,48.969,0,0,1-5.533-.389,56.071,56.071,0,0,0-6.649-.391,59.475,59.475,0,0,0-6.928.391,53.953,53.953,0,0,1-6.147.389,1.032,1.032,0,0,1-.9-0.5,1.887,1.887,0,0,1-.335-1.059,2.074,2.074,0,0,1,.335-1.171,1.425,1.425,0,0,1,1.006-.613,15.7,15.7,0,0,0,4.306-1,4.51,4.51,0,0,0,2.176-1.842,6.627,6.627,0,0,0,.785-2.9c0.073-1.153.11-2.582,0.11-4.3V375.536q0-5.239-.11-8.367a14.823,14.823,0,0,0-.785-4.8,3.936,3.936,0,0,0-2.065-2.286,11.783,11.783,0,0,0-4.081-.727,1.057,1.057,0,0,1-.893-0.445,2.468,2.468,0,0,1-.449-1,1.518,1.518,0,0,1,.168-1.061,1,1,0,0,1,.952-0.5q1.9-.222,5.53-0.893t7.88-1.784a2.9,2.9,0,0,1,.9-0.168q0.669-.053.892-0.053a2.439,2.439,0,0,1,1.9.89,2.733,2.733,0,0,1,.67,2.119l-0.225,5.467c0,0.377.149,0.412,0.449,0.115q0.556-.781,1.842-2.344a19.636,19.636,0,0,1,3.354-3.124,21.3,21.3,0,0,1,5.03-2.736,18.281,18.281,0,0,1,6.76-1.171q6.929,0,10.956,2.734a17.688,17.688,0,0,1,6.257,8.09,14.227,14.227,0,0,1,2.123-3.067,21.414,21.414,0,0,1,4.024-3.572,26.556,26.556,0,0,1,5.587-2.957,18.517,18.517,0,0,1,6.818-1.228,20.1,20.1,0,0,1,8.719,1.621,13.013,13.013,0,0,1,5.251,4.407,16.67,16.67,0,0,1,2.573,6.638,48.616,48.616,0,0,1,.67,8.313v17.742q0,2.792.111,4.687a8.776,8.776,0,0,0,.671,3.124,4.02,4.02,0,0,0,1.788,1.9,10.98,10.98,0,0,0,3.577,1,1.421,1.421,0,0,1,1.006.613,2.044,2.044,0,0,1,.336,1.171,1.858,1.858,0,0,1-.336,1.059,1.13,1.13,0,0,1-1.006.5,41.972,41.972,0,0,1-4.583-.389,52,52,0,0,0-6.483-.391,58.024,58.024,0,0,0-6.872.391,50.976,50.976,0,0,1-5.868.389,1.032,1.032,0,0,1-.9-0.5,1.887,1.887,0,0,1-.335-1.059,2.074,2.074,0,0,1,.335-1.171,1.427,1.427,0,0,1,1.006-.613,13.85,13.85,0,0,0,4.082-1,4.581,4.581,0,0,0,2.066-1.842,6.654,6.654,0,0,0,.785-2.9c0.072-1.153.11-2.582,0.11-4.3V377.659q0-3.012-.225-6.251a22.225,22.225,0,0,0-1.173-5.912,10.647,10.647,0,0,0-2.847-4.406,7.692,7.692,0,0,0-5.366-1.732,12.362,12.362,0,0,0-5.869,1.45,17.181,17.181,0,0,0-4.749,3.683,18.521,18.521,0,0,0-3.185,4.854,12.409,12.409,0,0,0-1.174,5.076v16.962q0,3.237.111,5.19a7.92,7.92,0,0,0,.671,3.067,3.327,3.327,0,0,0,1.788,1.621,15.938,15.938,0,0,0,3.577.836,1.423,1.423,0,0,1,1.006.613,2.044,2.044,0,0,1,.336,1.171,1.858,1.858,0,0,1-.336,1.059,1.131,1.131,0,0,1-1.006.5,41.986,41.986,0,0,1-4.584-.389,51.957,51.957,0,0,0-6.482-.391,58.012,58.012,0,0,0-6.872.391,48.938,48.938,0,0,1-5.533.389,1.032,1.032,0,0,1-.895-0.5,1.879,1.879,0,0,1-.335-1.059,2.066,2.066,0,0,1,.335-1.171,1.423,1.423,0,0,1,1.006-.613,19.91,19.91,0,0,0,3.856-.836,3.641,3.641,0,0,0,2.012-1.564,6.525,6.525,0,0,0,.728-2.846q0.109-1.782.111-4.8V377.659q0-3.012-.279-6.251a22.2,22.2,0,0,0-1.287-5.912,10.593,10.593,0,0,0-3.015-4.406,8.3,8.3,0,0,0-5.59-1.732,14.2,14.2,0,0,0-6.537,1.4,13.024,13.024,0,0,0-4.473,3.627,15.359,15.359,0,0,0-2.569,4.964,18.387,18.387,0,0,0-.838,5.412v16.626Zm122.214,1.451a14.319,14.319,0,0,0,.725,5.467,2.833,2.833,0,0,0,2.85,1.564,6.064,6.064,0,0,0,2.012-.279,13.194,13.194,0,0,0,2.237-1.172,0.647,0.647,0,0,1,.725,0,2.11,2.11,0,0,1,.67.613,2.449,2.449,0,0,1,.392.894,0.852,0.852,0,0,1-.224.837Q462.588,406,456.663,406a8.922,8.922,0,0,1-5.534-1.731,10.986,10.986,0,0,1-3.408-4.071c-0.151-.373-0.373-0.408-0.67-0.11a25.455,25.455,0,0,1-6.76,4.239A24.4,24.4,0,0,1,430.622,406q-6.374,0-9.835-3.4t-3.464-9.653q0-8.034,7.488-12.331t21.794-4.3c0.148,0,.259-0.187.335-0.558a17.515,17.515,0,0,0,.111-2.566v-3.013a29.309,29.309,0,0,0-.446-5.246,13.5,13.5,0,0,0-1.509-4.3,7.669,7.669,0,0,0-2.962-2.9,9.506,9.506,0,0,0-4.694-1.063,12.435,12.435,0,0,0-6.707,1.618,4.814,4.814,0,0,0-2.569,4.185,4.265,4.265,0,0,0,.782,2.4,4.291,4.291,0,0,1,.781,2.4,4.152,4.152,0,0,1-1.563,3.013,5.4,5.4,0,0,1-3.8,1.45q-3.02,0-4.3-1.617a6.155,6.155,0,0,1-1.285-3.961,9.834,9.834,0,0,1,1.566-5.3,14.122,14.122,0,0,1,4.246-4.3,23.037,23.037,0,0,1,6.258-2.846,26.209,26.209,0,0,1,7.488-1.061q8.942,0,14.084,4.128t5.141,13.728v22.316Zm-10.506-11.048a5.735,5.735,0,0,0-.111-1.5,0.532,0.532,0,0,0-.559-0.279q-9.165.781-13.579,3.847a9.6,9.6,0,0,0-2.74,13.5q1.675,2.287,5.59,2.287a16.34,16.34,0,0,0,5.42-1,15.975,15.975,0,0,0,5.084-2.9,2.565,2.565,0,0,0,.895-1.785V381.786Zm42.852,9.6c0,1.861.034,3.424,0.11,4.687a9.8,9.8,0,0,0,.614,3.124,3.8,3.8,0,0,0,1.676,1.9,9.941,9.941,0,0,0,3.3,1,1.41,1.41,0,0,1,1.006.613,2.044,2.044,0,0,1,.336,1.171,1.858,1.858,0,0,1-.336,1.059,1.124,1.124,0,0,1-1.006.5,40.985,40.985,0,0,1-4.192-.389,50.656,50.656,0,0,0-6.425-.391,59.437,59.437,0,0,0-6.928.391,54.849,54.849,0,0,1-6.262.389,1.024,1.024,0,0,1-.892-0.5,1.864,1.864,0,0,1-.335-1.059,2.051,2.051,0,0,1,.335-1.171,1.413,1.413,0,0,1,1.007-.613,19.824,19.824,0,0,0,4.3-.893,4.358,4.358,0,0,0,2.234-1.675,5.942,5.942,0,0,0,.839-2.9q0.112-1.78.113-4.574V377.994q0-5.469-.113-9.1a21.979,21.979,0,0,0-.783-5.747,4.934,4.934,0,0,0-2.122-2.956,8.371,8.371,0,0,0-4.135-.837,1.336,1.336,0,0,1-1.063-.445,1.475,1.475,0,0,1-.392-1,1.629,1.629,0,0,1,.392-1.118,1.347,1.347,0,0,1,1.063-.446,41.7,41.7,0,0,0,6.2-.669,71.269,71.269,0,0,0,8.326-1.9,1.976,1.976,0,0,1,2.348.613,3.942,3.942,0,0,1,.785,2.4v4.465a0.253,0.253,0,0,0,.167.279,0.228,0.228,0,0,0,.278-0.167,19.982,19.982,0,0,1,9.947-7.811,15.977,15.977,0,0,1,5.476-.894q8.387,0,13.132,4.63t4.752,15.011v19.08q0,3.014.168,4.91a8.153,8.153,0,0,0,.781,3.069,4.032,4.032,0,0,0,1.9,1.785,12.973,12.973,0,0,0,3.636.95,1.423,1.423,0,0,1,1,.613,2.074,2.074,0,0,1,.335,1.171,1.887,1.887,0,0,1-.335,1.059,1.13,1.13,0,0,1-1,.5,46.453,46.453,0,0,1-4.753-.389,58.166,58.166,0,0,0-13.467,0,46.911,46.911,0,0,1-5.365.389,1.023,1.023,0,0,1-.893-0.5,1.864,1.864,0,0,1-.335-1.059,2.051,2.051,0,0,1,.335-1.171,1.41,1.41,0,0,1,1.006-.613,11.9,11.9,0,0,0,3.743-1,4.359,4.359,0,0,0,1.9-1.842,7.236,7.236,0,0,0,.724-2.9c0.075-1.153.114-2.582,0.114-4.3V375.091q0-2.784-.225-5.578a15.124,15.124,0,0,0-1.227-5.022,9.456,9.456,0,0,0-2.908-3.683,8.485,8.485,0,0,0-5.252-1.45,15,15,0,0,0-5.868,1.061,12.773,12.773,0,0,0-4.249,2.843,11.907,11.907,0,0,0-2.625,4.185,14.389,14.389,0,0,0-.892,5.079v18.857Zm65.18-30.685c0.145,0.372.335,0.372,0.556,0a20.208,20.208,0,0,1,7.211-5.918,19.225,19.225,0,0,1,8.547-2.118q9.5,0,13.693,5.189t4.192,13.557v20.644q0,2.905.167,4.689a6.987,6.987,0,0,0,.782,2.845,3.614,3.614,0,0,0,1.954,1.561,23.507,23.507,0,0,0,3.689.95,1.365,1.365,0,0,1,1.007.671,2.136,2.136,0,0,1,.335,1.113,1.864,1.864,0,0,1-.335,1.059,1.027,1.027,0,0,1-.892.5,43.506,43.506,0,0,1-4.753-.389,53.337,53.337,0,0,0-6.539-.391,62.372,62.372,0,0,0-7.039.391,54.693,54.693,0,0,1-5.926.389,1.13,1.13,0,0,1-1-.5,1.876,1.876,0,0,1-.332-1.059,2.065,2.065,0,0,1,.332-1.171,1.516,1.516,0,0,1,1.12-.613,17.155,17.155,0,0,0,3.966-.893,3.8,3.8,0,0,0,2.013-1.675,7.485,7.485,0,0,0,.781-2.9q0.167-1.78.168-4.574V375.205a39.97,39.97,0,0,0-.392-5.581,17.793,17.793,0,0,0-1.453-5.075,9.424,9.424,0,0,0-3.071-3.741,9,9,0,0,0-5.366-1.45,12.77,12.77,0,0,0-6.09,1.34,14.032,14.032,0,0,0-4.138,3.234,13.248,13.248,0,0,0-2.4,4.018,10.881,10.881,0,0,0-.781,3.682v19.751c0,2.009.034,3.664,0.111,4.965a7.922,7.922,0,0,0,.67,3.071,3.883,3.883,0,0,0,1.731,1.728,11.005,11.005,0,0,0,3.3.95,1.455,1.455,0,0,1,1.117.671,2.127,2.127,0,0,1,.335,1.113,1.857,1.857,0,0,1-.335,1.059,1.133,1.133,0,0,1-1.006.5,40.507,40.507,0,0,1-4.527-.389,50.691,50.691,0,0,0-6.425-.391,56.653,56.653,0,0,0-6.818.391,49.648,49.648,0,0,1-5.812.389,1.125,1.125,0,0,1-1.006-.5,1.864,1.864,0,0,1-.335-1.059,2.051,2.051,0,0,1,.335-1.171,1.5,1.5,0,0,1,1.116-.613,17.125,17.125,0,0,0,3.968-.893,4.1,4.1,0,0,0,2.069-1.675,6.883,6.883,0,0,0,.838-2.9q0.166-1.78.168-4.574V348.2q0-4.8-.225-7.644a10.712,10.712,0,0,0-1.116-4.407,4.55,4.55,0,0,0-2.683-2.122,26.992,26.992,0,0,0-4.919-.89,0.889,0.889,0,0,1-.836-0.56,3.058,3.058,0,0,1-.335-1.115,1.969,1.969,0,0,1,.222-1.115,0.975,0.975,0,0,1,.949-0.558q3.241-.225,7.937-0.671a46.117,46.117,0,0,0,8.83-1.674c1.04-.3,1.73-0.239,2.066.167a2.769,2.769,0,0,1,.617,1.283V360.7ZM611.9,376.43a0.511,0.511,0,0,0-.615.392,6.844,6.844,0,0,0-.057.948,32.548,32.548,0,0,0,1.285,9.821,17.417,17.417,0,0,0,3.578,6.528,13.209,13.209,0,0,0,5.476,3.626,20.669,20.669,0,0,0,6.875,1.115,43.682,43.682,0,0,0,7.375-.614,12.849,12.849,0,0,0,6.146-2.735,1.425,1.425,0,0,1,1.174-.334,1.721,1.721,0,0,1,1.006.559,2.162,2.162,0,0,1,.5,1,1.215,1.215,0,0,1-.222,1,19.2,19.2,0,0,1-8.047,6.471,34.732,34.732,0,0,1-22.633-.224,21.385,21.385,0,0,1-8.049-5.635,23,23,0,0,1-4.691-8.481,35.3,35.3,0,0,1-1.509-10.542,29.227,29.227,0,0,1,1.845-10.379,25.11,25.11,0,0,1,5.194-8.481,25.468,25.468,0,0,1,7.937-5.694,23.96,23.96,0,0,1,10.171-2.118,21.822,21.822,0,0,1,8.549,1.621,18.85,18.85,0,0,1,6.539,4.462,20.368,20.368,0,0,1,4.192,6.807,23.781,23.781,0,0,1,1.509,8.535q0,2.346-1.677,2.343H611.9Zm20.452-3.9c1.045,0,1.639-.373,1.788-1.118a13.791,13.791,0,0,0,.224-2.678,14.143,14.143,0,0,0-.728-4.517,12.354,12.354,0,0,0-2.066-3.851,10.238,10.238,0,0,0-3.242-2.678,9.192,9.192,0,0,0-4.356-1.005,11.743,11.743,0,0,0-5.2,1.063,11.509,11.509,0,0,0-3.689,2.788A11.777,11.777,0,0,0,612.8,364.6a26.293,26.293,0,0,0-1.119,4.912,9.764,9.764,0,0,0-.168,2.176c0.038,0.556.206,0.837,0.5,0.837h20.342Zm30.726,5.02a31.879,31.879,0,0,0,1.006,8.092,21.022,21.022,0,0,0,3.075,6.807,14.909,14.909,0,0,0,5.309,4.684,16.373,16.373,0,0,0,7.822,1.731,47.411,47.411,0,0,0,7.656-.614,12.471,12.471,0,0,0,6.315-2.845,0.953,0.953,0,0,1,1.007-.278,2.746,2.746,0,0,1,1.006.555,2.069,2.069,0,0,1,.613.948,1.067,1.067,0,0,1-.168,1,18.4,18.4,0,0,1-8.605,6.639A35.085,35.085,0,0,1,676.493,406a31.008,31.008,0,0,1-8.943-1.338,21.981,21.981,0,0,1-8.1-4.464,22.431,22.431,0,0,1-5.868-8.313A32.636,32.636,0,0,1,651.345,379a28.8,28.8,0,0,1,1.845-10.322,23.381,23.381,0,0,1,5.362-8.37,25.566,25.566,0,0,1,8.662-5.578,31.609,31.609,0,0,1,11.848-2.066,25.485,25.485,0,0,1,6.315.784,19.119,19.119,0,0,1,5.476,2.286,12.355,12.355,0,0,1,3.857,3.737,9.029,9.029,0,0,1,1.452,5.022,6.2,6.2,0,0,1-1.342,3.793,4.956,4.956,0,0,1-4.246,1.784,5.917,5.917,0,0,1-3.856-1.224,4.338,4.338,0,0,1-1.509-3.573,3.867,3.867,0,0,1,.839-2.565,3.032,3.032,0,0,0,.838-1.9q0-2.009-2.683-3.066a15.928,15.928,0,0,0-5.922-1.063,13.159,13.159,0,0,0-7.1,1.785,14.668,14.668,0,0,0-4.691,4.744,20.454,20.454,0,0,0-2.629,6.695A37.2,37.2,0,0,0,663.08,377.546Zm49.466-1.116a0.511,0.511,0,0,0-.614.392,6.691,6.691,0,0,0-.057.948,32.516,32.516,0,0,0,1.285,9.821,17.416,17.416,0,0,0,3.577,6.528,13.212,13.212,0,0,0,5.477,3.626,20.665,20.665,0,0,0,6.875,1.115,43.662,43.662,0,0,0,7.374-.614,12.848,12.848,0,0,0,6.147-2.735,1.424,1.424,0,0,1,1.174-.334,1.724,1.724,0,0,1,1.006.559,2.162,2.162,0,0,1,.5,1,1.215,1.215,0,0,1-.222,1,19.207,19.207,0,0,1-8.048,6.471,34.732,34.732,0,0,1-22.633-.224,21.389,21.389,0,0,1-8.048-5.635,23,23,0,0,1-4.691-8.481,35.3,35.3,0,0,1-1.509-10.542,29.249,29.249,0,0,1,1.844-10.379,25.112,25.112,0,0,1,5.2-8.481,25.468,25.468,0,0,1,7.937-5.694,23.957,23.957,0,0,1,10.171-2.118,21.814,21.814,0,0,1,8.548,1.621,18.845,18.845,0,0,1,6.54,4.462,20.385,20.385,0,0,1,4.192,6.807,23.8,23.8,0,0,1,1.509,8.535q0,2.346-1.677,2.343H712.546Zm20.452-3.9c1.045,0,1.639-.373,1.788-1.118a13.784,13.784,0,0,0,.225-2.678,14.143,14.143,0,0,0-.728-4.517,12.375,12.375,0,0,0-2.066-3.851,10.26,10.26,0,0,0-3.242-2.678,9.194,9.194,0,0,0-4.357-1.005,11.747,11.747,0,0,0-5.2,1.063,11.505,11.505,0,0,0-3.688,2.788,11.761,11.761,0,0,0-2.291,4.071,26.294,26.294,0,0,0-1.12,4.912,9.815,9.815,0,0,0-.167,2.176c0.038,0.556.205,0.837,0.5,0.837H733Zm36.2,18.857q0,2.792.168,4.687a5.552,5.552,0,0,0,1.174,3.124,6.413,6.413,0,0,0,3.129,1.9,30,30,0,0,0,6.147,1,1.427,1.427,0,0,1,1.006.613,2.051,2.051,0,0,1,.335,1.171,1.864,1.864,0,0,1-.335,1.059,1.133,1.133,0,0,1-1.006.5,82.29,82.29,0,0,1-8.5-.389,66.517,66.517,0,0,0-7.042-.391,63.925,63.925,0,0,0-7.1.391,64.9,64.9,0,0,1-7.095.389,1.033,1.033,0,0,1-.9-0.5,1.887,1.887,0,0,1-.335-1.059,2.074,2.074,0,0,1,.335-1.171,1.425,1.425,0,0,1,1.007-.613,20.084,20.084,0,0,0,4.862-1,5.134,5.134,0,0,0,2.515-1.842,6.23,6.23,0,0,0,.949-2.9c0.111-1.153.168-2.582,0.168-4.3v-16.29q0-5.469-.225-8.649a13.824,13.824,0,0,0-1.059-4.91,4.221,4.221,0,0,0-2.626-2.285,22.715,22.715,0,0,0-4.92-.784,0.891,0.891,0,0,1-.838-0.556,2.375,2.375,0,0,1,0-2.234,0.979,0.979,0,0,1,.949-0.559q2.235-.218,6.2-0.5a42.111,42.111,0,0,0,8.1-1.393,4.426,4.426,0,0,1,2.572-.11c0.67,0.22.968,0.856,0.9,1.9l-0.226,7.142a0.28,0.28,0,0,0,.111.278,0.34,0.34,0,0,0,.336-0.168,22.472,22.472,0,0,1,5.758-7.476q3.407-2.786,9.107-2.789,4.695,0,6.929,2.4A8.281,8.281,0,0,1,792,360.922a4.992,4.992,0,0,1-1.451,3.459,5.374,5.374,0,0,1-4.139,1.56q-2.571,0-3.575-1.227a4.138,4.138,0,0,1-1.006-2.677,4.284,4.284,0,0,0-.613-2.455q-0.618-.894-2.63-0.892a5.98,5.98,0,0,0-3.852,1.395,13.827,13.827,0,0,0-2.965,3.291,17.1,17.1,0,0,0-1.9,3.9,10.738,10.738,0,0,0-.671,3.124v20.979Z" transform="translate(-232.031 -327)"/>
</svg>
